<!DOCTYPE svg PUBLIC "-//W3C//DTD SVG 1.1//EN" "http://www.w3.org/Graphics/SVG/1.1/DTD/svg11.dtd">

<!-- Uploaded to: SVG Repo, www.svgrepo.com, Transformed by: SVG Repo Mixer Tools -->
<svg fill="#3284dc" version="1.1" id="Capa_1" xmlns="http://www.w3.org/2000/svg" xmlns:xlink="http://www.w3.org/1999/xlink" width="40px" height="40px" viewBox="0 0 389.933 389.934" xml:space="preserve" stroke="#3284dc">

<g id="SVGRepo_bgCarrier" stroke-width="0"/>

<g id="SVGRepo_tracerCarrier" stroke-linecap="round" stroke-linejoin="round"/>

<g id="SVGRepo_iconCarrier"> <g> <path d="M251.688,276.293c43.955-71.674,66.257-123.225,66.257-153.315C317.945,55.172,262.773,0,194.967,0 C127.158,0,71.989,55.172,71.989,122.978c0,30.09,22.29,81.641,66.248,153.315c-7.524,6.017-12.445,15.168-12.445,25.52v17.414 c0,11.445,6.149,21.966,15.724,27.862c5.503,24.452,27.442,42.845,53.452,42.845c26.001,0,47.942-18.393,53.442-42.845 c9.584-5.896,15.732-16.417,15.732-27.862v-17.414C264.142,291.461,259.224,282.31,251.688,276.293z M246.206,112.617 c0-21.473-17.468-38.947-38.94-38.947c-6.795,0-12.298-5.51-12.298-12.298c0-6.789,5.503-12.298,12.298-12.298 c35.031,0,63.536,28.505,63.536,63.542c0,6.789-5.506,12.298-12.298,12.298C251.712,124.915,246.206,119.411,246.206,112.617z"/> </g> </g>

</svg>